<mxfile host="app.diagrams.net" modified="2024-07-02T04:44:34.242Z" agent="Mozilla/5.0 (Windows NT 10.0; Win64; x64) AppleWebKit/537.36 (KHTML, like Gecko) Chrome/126.0.0.0 Safari/537.36" version="24.6.4" etag="2T6wfKtQ4LtpibbHhX7I" type="github">
  <diagram name="페이지-1" id="Kc9xDvbWHPoPnZX9OLKI">
    <mxGraphModel>
      <root>
        <mxCell id="0" />
        <mxCell id="1" parent="0" />
      </root>
    </mxGraphModel>
  </diagram>
</mxfile>
